# File created by Blade
# Date/Time:  Mon Sep 22 15:50:36 2014
# Frame Rate: 120.000 fps
#------------------------------------------------------
:FULLY-SPECIFIED
:DEGREES
1739
root 2.303320 36.995927 3.529293 -0.207259 -4.870730 1.742121
RightUpLeg 8.528118 -4.686412 -4.099663
RightLeg -4.708873 -0.000000 0.000000
RightFoot -12.848559 -14.945222 15.351446
RightToeBase 14.346365 -0.000000 -0.000000
LeftUpLeg 8.606433 3.379988 1.022230
LeftLeg -3.885558 -0.000000 0.000000
LeftFoot -10.417302 14.223655 -17.823114
LeftToeBase 9.497116 -0.000000 -0.000000
Spine -2.317504 -11.086278 -0.488390
RightShoulder 8.784562 -24.309979 -9.629930
RightArm 28.901705 -33.298804 56.531898
RightForeArm 14.437432 -0.000000 33.579405
RightHand 3.426162 -0.000000 -0.657000
RightHandThumb1 -24.326973 -0.000000 -32.862282
LeftShoulder -9.029933 21.480996 15.058562
LeftArm 92.648029 -60.059475 -115.123423
LeftForeArm -50.269136 -0.000000 103.424533
LeftHand -5.789188 0.000000 5.662604
LeftHandThumb1 -26.253704 0.000000 33.147579
Head 15.608191 23.504387 8.682043
1740
root 2.293759 36.998807 3.531199 -0.196911 -4.904743 1.707265
RightUpLeg 8.519964 -4.666704 -4.045857
RightLeg -4.715733 -0.000000 0.000000
RightFoot -12.805911 -14.963566 15.356294
RightToeBase 14.281909 -0.000000 -0.000000
LeftUpLeg 8.596914 3.430945 1.066337
LeftLeg -3.873184 -0.000000 0.000000
LeftFoot -10.393382 14.222304 -17.883381
LeftToeBase 9.347052 -0.000000 -0.000000
Spine -2.319811 -10.973793 -0.529445
RightShoulder 8.828427 -24.306956 -9.600005
RightArm 28.882278 -33.369914 56.515184
RightForeArm 14.495376 -0.000000 33.614348
RightHand 3.417157 -0.000000 -0.656349
RightHandThumb1 -24.326973 -0.000000 -32.862282
LeftShoulder -8.936977 21.408304 15.197020
LeftArm 92.116856 -60.149091 -114.720924
LeftForeArm -51.995775 0.000000 104.485177
LeftHand -5.998011 -0.000000 5.761624
LeftHandThumb1 -26.253704 0.000000 33.147579
Head 15.496671 23.328727 8.935662
1741
root 2.287224 37.001442 3.533482 -0.193352 -4.923370 1.687868
RightUpLeg 8.507171 -4.666214 -4.018594
RightLeg -4.692386 -0.000000 0.000000
RightFoot -12.805622 -14.932353 15.401791
RightToeBase 14.302816 -0.000000 -0.000000
LeftUpLeg 8.586602 3.428635 1.088668
LeftLeg -3.837977 -0.000000 0.000000
LeftFoot -10.440246 14.274642 -17.828288
LeftToeBase 9.465933 -0.000000 -0.000000
Spine -2.307898 -10.850080 -0.607976
RightShoulder 8.865838 -24.266781 -9.544598
RightArm 28.783130 -33.431332 56.553287
RightForeArm 14.502291 -0.000000 33.652272
RightHand 3.422648 -0.000000 -0.598139
RightHandThumb1 -24.326973 -0.000000 -32.862282
LeftShoulder -8.851625 21.442248 15.320884
LeftArm 91.876463 -60.131384 -114.567425
LeftForeArm -53.778680 -0.000000 105.806175
LeftHand -6.548234 -0.000000 6.315425
LeftHandThumb1 -26.253704 0.000000 33.147579
Head 15.319692 23.006140 9.155150
1742
root 2.279988 37.003725 3.533603 -0.183590 -4.932460 1.657514
RightUpLeg 8.490103 -4.642825 -3.972755
RightLeg -4.677586 -0.000000 0.000000
RightFoot -12.779424 -14.957300 15.380648
RightToeBase 14.282358 -0.000000 -0.000000
LeftUpLeg 8.570165 3.439323 1.124673
LeftLeg -3.818772 -0.000000 0.000000
LeftFoot -10.441786 14.304200 -17.802194
LeftToeBase 9.450199 -0.000000 -0.000000
Spine -2.268921 -10.738330 -0.659022
RightShoulder 8.861191 -24.240977 -9.502782
RightArm 28.804140 -33.539594 56.504246
RightForeArm 14.562471 -0.000000 33.650560
RightHand 3.395637 -0.000000 -0.560549
RightHandThumb1 -24.326973 -0.000000 -32.862282
LeftShoulder -8.839798 21.386446 15.362891
LeftArm 91.724869 -60.034428 -114.479488
LeftForeArm -55.368458 -0.000000 107.311222
LeftHand -6.861110 -0.000000 6.712635
LeftHandThumb1 -26.253704 0.000000 33.147579
Head 15.168909 22.848216 9.510537
1743
root 2.272314 37.005515 3.535204 -0.170693 -4.926660 1.620097
RightUpLeg 8.476610 -4.615113 -3.915577
RightLeg -4.665894 -0.000000 0.000000
RightFoot -12.782205 -14.989603 15.438177
RightToeBase 14.270570 -0.000000 -0.000000
LeftUpLeg 8.556957 3.443026 1.169188
LeftLeg -3.809533 -0.000000 0.000000
LeftFoot -10.449904 14.320330 -17.808938
LeftToeBase 9.456525 -0.000000 -0.000000
Spine -2.242735 -10.647938 -0.714081
RightShoulder 8.873938 -24.251610 -9.466450
RightArm 28.831020 -33.603094 56.476218
RightForeArm 14.606973 -0.000000 33.634723
RightHand 3.412229 -0.000000 -0.508453
RightHandThumb1 -24.326973 -0.000000 -32.862282
LeftShoulder -8.799293 21.359665 15.450860
LeftArm 91.775489 -59.908825 -114.716425
LeftForeArm -56.357575 -0.000000 109.057191
LeftHand -7.403717 -0.000000 7.263165
LeftHandThumb1 -26.253704 0.000000 33.147579
Head 14.976992 22.609879 9.793844
1744
root 2.265597 37.006716 3.535867 -0.157047 -4.900804 1.590332
RightUpLeg 8.458036 -4.615652 -3.870553
RightLeg -4.640465 -0.000000 0.000000
RightFoot -12.785671 -15.019772 15.420787
RightToeBase 14.269261 -0.000000 -0.000000
LeftUpLeg 8.539399 3.406840 1.202258
LeftLeg -3.800652 -0.000000 0.000000
LeftFoot -10.465144 14.363308 -17.782659
LeftToeBase 9.473644 -0.000000 -0.000000
Spine -2.210883 -10.596289 -0.786091
RightShoulder 8.883747 -24.237610 -9.423608
RightArm 28.889008 -33.700702 56.425448
RightForeArm 14.665552 -0.000000 33.576555
RightHand 3.402996 -0.000000 -0.462139
RightHandThumb1 -24.326973 -0.000000 -32.862282
LeftShoulder -8.758761 21.256570 15.566112
LeftArm 91.908080 -59.782539 -115.111539
LeftForeArm -57.266132 0.000000 111.031775
LeftHand -7.551140 0.000000 7.535358
LeftHandThumb1 -26.253704 0.000000 33.147579
Head 14.772814 22.297253 10.054688
1745
root 2.259031 37.007114 3.535842 -0.147039 -4.870490 1.566052
RightUpLeg 8.447455 -4.599482 -3.837972
RightLeg -4.617306 -0.000000 0.000000
RightFoot -12.801887 -15.006396 15.472563
RightToeBase 14.262306 -0.000000 -0.000000
LeftUpLeg 8.521255 3.390841 1.233603
LeftLeg -3.785990 -0.000000 0.000000
LeftFoot -10.473773 14.366253 -17.765597
LeftToeBase 9.450213 -0.000000 -0.000000
Spine -2.175119 -10.554318 -0.868687
RightShoulder 8.919170 -24.221630 -9.398667
RightArm 28.945841 -33.788705 56.399335
RightForeArm 14.696140 -0.000000 33.504704
RightHand 3.358173 0.000000 -0.418948
RightHandThumb1 -24.326973 -0.000000 -32.862282
LeftShoulder -8.765644 21.291912 15.629207
LeftArm 92.558929 -59.463716 -116.015146
LeftForeArm -57.372937 -0.000000 113.138333
LeftHand -7.905999 -0.000000 7.336027
LeftHandThumb1 -26.253704 0.000000 33.147579
Head 14.545311 21.923505 10.287364
1746
root 2.253485 37.007440 3.535633 -0.134192 -4.842795 1.538834
RightUpLeg 8.423488 -4.615225 -3.797157
RightLeg -4.585608 -0.000000 0.000000
RightFoot -12.804083 -15.031933 15.450311
RightToeBase 14.241173 -0.000000 -0.000000
LeftUpLeg 8.507150 3.374302 1.265573
LeftLeg -3.783977 -0.000000 0.000000
LeftFoot -10.496346 14.380322 -17.774521
LeftToeBase 9.480831 -0.000000 -0.000000
Spine -2.131312 -10.513070 -0.925869
RightShoulder 8.950466 -24.208160 -9.402753
RightArm 28.997176 -33.839961 56.421611
RightForeArm 14.638275 -0.000000 33.418150
RightHand 3.322035 -0.000000 -0.387358
RightHandThumb1 -24.326973 -0.000000 -32.862282
LeftShoulder -8.789429 21.244676 15.629101
LeftArm 93.210039 -59.166563 -116.898564
LeftForeArm -57.338912 -0.000000 115.478588
LeftHand -8.121187 0.000000 7.304393
LeftHandThumb1 -26.253704 0.000000 33.147579
Head 14.370452 21.773353 10.596230
1747
root 2.247006 37.007512 3.534899 -0.115726 -4.812402 1.515771
RightUpLeg 8.405178 -4.598906 -3.757656
RightLeg -4.571155 -0.000000 0.000000
RightFoot -12.820601 -15.066019 15.471692
RightToeBase 14.258440 -0.000000 -0.000000
LeftUpLeg 8.487378 3.386216 1.296072
LeftLeg -3.784778 -0.000000 0.000000
LeftFoot -10.482612 14.373593 -17.734787
LeftToeBase 9.442918 -0.000000 -0.000000
Spine -2.098273 -10.469537 -1.000803
RightShoulder 8.962782 -24.174824 -9.374905
RightArm 29.033671 -33.909434 56.440275
RightForeArm 14.575493 -0.000000 33.314436
RightHand 3.279490 0.000000 -0.369721
RightHandThumb1 -24.326973 -0.000000 -32.862282
LeftShoulder -8.815107 21.169429 15.626367
LeftArm 93.915295 -58.794087 -117.810005
LeftForeArm -57.439514 -0.000000 117.958527
LeftHand -8.061168 -0.000000 7.006713
LeftHandThumb1 -26.253704 0.000000 33.147579
Head 14.157392 21.440718 10.802398
1748
root 2.241341 37.006697 3.535346 -0.094160 -4.772189 1.501718
RightUpLeg 8.391524 -4.593715 -3.730515
RightLeg -4.566634 -0.000000 0.000000
RightFoot -12.841013 -15.086612 15.485714
RightToeBase 14.236774 -0.000000 -0.000000
LeftUpLeg 8.458609 3.389221 1.323826
LeftLeg -3.773505 -0.000000 0.000000
LeftFoot -10.486498 14.332791 -17.716796
LeftToeBase 9.472882 -0.000000 -0.000000
Spine -2.071576 -10.434990 -1.085958
RightShoulder 8.966987 -24.112927 -9.348135
RightArm 29.050312 -34.007265 56.479394
RightForeArm 14.539484 -0.000000 33.194928
RightHand 3.225409 0.000000 -0.344551
RightHandThumb1 -24.326973 -0.000000 -32.862282
LeftShoulder -8.907082 21.141703 15.546726
LeftArm 94.732265 -58.310190 -118.723495
LeftForeArm -57.533971 0.000000 120.585340
LeftHand -7.772944 -0.000000 6.270520
LeftHandThumb1 -26.253704 0.000000 33.147579
Head 13.972705 21.187460 11.074478
1749
root 2.235263 37.007107 3.534025 -0.076879 -4.735491 1.489615
RightUpLeg 8.378620 -4.577100 -3.700679
RightLeg -4.566173 -0.000000 0.000000
RightFoot -12.851317 -15.151302 15.470835
RightToeBase 14.259009 -0.000000 -0.000000
LeftUpLeg 8.433422 3.405754 1.349332
LeftLeg -3.767446 -0.000000 0.000000
LeftFoot -10.483630 14.290382 -17.718815
LeftToeBase 9.504009 -0.000000 -0.000000
Spine -2.025891 -10.420277 -1.175970
RightShoulder 8.998079 -24.059496 -9.332580
RightArm 29.047196 -34.018203 56.591198
RightForeArm 14.396604 -0.000000 33.048847
RightHand 3.191764 -0.000000 -0.301119
RightHandThumb1 -24.326973 -0.000000 -32.862282
LeftShoulder -9.033466 21.025289 15.434763
LeftArm 95.572468 -57.787060 -119.620689
LeftForeArm -57.687700 -0.000000 123.308326
LeftHand -7.292425 -0.000000 4.882801
LeftHandThumb1 -26.253704 0.000000 33.147579
Head 13.785608 20.871811 11.270676
1750
root 2.230059 37.006936 3.534234 -0.056976 -4.701489 1.483141
RightUpLeg 8.372975 -4.556273 -3.683944
RightLeg -4.580551 -0.000000 0.000000
RightFoot -12.842778 -15.181056 15.484878
RightToeBase 14.212357 -0.000000 -0.000000
LeftUpLeg 8.407050 3.425701 1.367916
LeftLeg -3.761095 -0.000000 0.000000
LeftFoot -10.471351 14.234671 -17.741426
LeftToeBase 9.500983 -0.000000 -0.000000
Spine -2.002469 -10.396658 -1.272277
RightShoulder 9.005584 -24.047819 -9.308483
RightArm 29.108162 -34.051343 56.634483
RightForeArm 14.342074 -0.000000 32.893967
RightHand 3.160879 -0.000000 -0.285396
RightHandThumb1 -24.326973 -0.000000 -32.862282
LeftShoulder -9.188042 20.867569 15.262975
LeftArm 96.434002 -57.175629 -120.392301
LeftForeArm -58.039983 0.000000 126.114537
LeftHand -6.557818 0.000000 3.005327
LeftHandThumb1 -26.253704 0.000000 33.147579
Head 13.626939 20.670884 11.526231
1751
root 2.224905 37.006107 3.535710 -0.041192 -4.653230 1.483184
RightUpLeg 8.387680 -4.417600 -3.662395
RightLeg -4.616540 -0.000000 0.000000
RightFoot -12.882143 -15.318756 15.541176
RightToeBase 14.211876 -0.000000 -0.000000
LeftUpLeg 8.382836 3.439948 1.378917
LeftLeg -3.751894 -0.000000 0.000000
LeftFoot -10.453234 14.202284 -17.685159
LeftToeBase 9.462715 -0.000000 -0.000000
Spine -1.972707 -10.359265 -1.380591
RightShoulder 8.978102 -24.020978 -9.260619
RightArm 29.128694 -34.085501 56.697788
RightForeArm 14.306812 -0.000000 32.757781
RightHand 3.150445 0.000000 -0.270142
RightHandThumb1 -24.326973 -0.000000 -32.862282
LeftShoulder -9.413501 20.787925 15.048709
LeftArm 97.463412 -56.289095 -121.207997
LeftForeArm -58.346878 -0.000000 128.930432
LeftHand -5.379104 -0.000000 0.013501
LeftHandThumb1 -26.253704 0.000000 33.147579
Head 13.477131 20.435561 11.756801
